<svg width="16" height="16" viewBox="0 0 16 16" fill="none" xmlns="http://www.w3.org/2000/svg">
<g opacity="0.8" clip-path="url(#clip0)">
<path d="M1.99999 0H14C15.1 0 16 0.900002 16 1.99999V14C16 15.1 15.1 16 14 16H1.99999C0.900002 16 0 15.1 0 14V1.99999C0 0.900002 0.900002 0 1.99999 0Z" fill="#FDF0DE"/>
<path d="M0 11.625V14C0 15.1 0.900002 16 1.99999 16H14C15.1 16 16 15.1 16 14V11.625H0Z" fill="#475F6C"/>
<path d="M3.04999 13.125H12.95C13.25 13.125 13.5 13.375 13.5 13.6875C13.5 14 13.25 14.25 12.95 14.25H3.04999C2.75 14.25 2.5 14 2.5 13.6875C2.5 13.375 2.75 13.125 3.04999 13.125Z" fill="#2B414D"/>
<path d="M6.12503 7.25H7.37504V11.625H6.12503V7.25Z" fill="#E49ADF"/>
<path d="M7.375 7.25H8.62501V11.625H7.375V7.25Z" fill="#E5C45A"/>
<path d="M8.625 7.25H9.87501V11.625H8.625V7.25Z" fill="#A6D26E"/>
<path d="M8.00002 2.875C9.72502 2.875 11.125 4.27501 11.125 6.00002C11.125 7.72502 9.72502 9.12503 8.00002 9.12503C6.27501 9.12503 4.875 7.72499 4.875 5.99998C4.875 4.27498 6.27501 2.875 8.00002 2.875Z" fill="#2B414D"/>
<path d="M8.00002 3.5C9.37502 3.5 10.5 4.625 10.5 5.99999C10.5 7.37499 9.37502 8.49999 8.00002 8.49999C6.62503 8.49999 5.50003 7.37499 5.50003 5.99999C5.50003 4.625 6.62499 3.5 8.00002 3.5Z" fill="#475F6C"/>
<path d="M8.00002 4.25C8.96251 4.25 9.75 5.03749 9.75 5.99999C9.75 6.96248 8.96251 7.74997 8.00002 7.74997C7.03752 7.74997 6.25003 6.96248 6.25003 5.99999C6.25003 5.03749 7.03749 4.25 8.00002 4.25Z" fill="#2B414D"/>
<path d="M8.00002 5.125C8.48752 5.125 8.87502 5.51249 8.87502 5.99999C8.87502 6.48749 8.48752 6.87499 8.00002 6.87499C7.51252 6.87499 7.12503 6.48749 7.12503 5.99999C7.12503 5.51249 7.51252 5.125 8.00002 5.125Z" fill="#1E2D36"/>
<path d="M7.8125 5.5C7.9875 5.5 8.12499 5.63749 8.12499 5.81249C8.12499 5.9875 7.9875 6.12499 7.8125 6.12499C7.63749 6.12499 7.5 5.9875 7.5 5.81249C7.5 5.63749 7.63749 5.5 7.8125 5.5Z" fill="#566268"/>
<path d="M12.875 2.875H13.75C14.025 2.875 14.25 3.09999 14.25 3.37501V4.25C14.25 4.52502 14.025 4.75001 13.75 4.75001H12.875C12.6 4.75001 12.375 4.52502 12.375 4.25V3.37501C12.375 3.09999 12.6 2.875 12.875 2.875Z" fill="#3F5E6D"/>
<path d="M2.75001 4.875C3.16251 4.875 3.50001 5.2125 3.50001 5.62501C3.50001 6.03751 3.16251 6.37501 2.75001 6.37501C2.33751 6.37501 2 6.03751 2 5.62501C2 5.2125 2.33751 4.875 2.75001 4.875Z" fill="#E2574C"/>
<path d="M2.25 2.875H3.25002C3.52503 2.875 3.75002 3.09999 3.75002 3.375V3.49999C3.75002 3.775 3.52503 4 3.25002 4H2.25C1.97499 4 1.75 3.775 1.75 3.49999V3.375C1.75 3.09999 1.97502 2.875 2.25 2.875Z" fill="#D2BB9A"/>
<path d="M0 10.25H16V11.625H0V10.25Z" fill="#FDF3E5"/>
<path d="M14 0H1.99999C0.900002 0 0 0.900003 0 1.99999V3C0 1.90001 0.900002 1.00001 1.99999 1.00001H14C15.1 1.00001 16 1.90001 16 3V1.99999C16 0.900003 15.1 0 14 0Z" fill="#F5E8D5"/>
<path d="M6.12503 10.25H7.37504V11.625H6.12503V10.25Z" fill="#E9AEE5"/>
<path d="M7.375 10.25H8.62501V11.625H7.375V10.25Z" fill="#EAD07B"/>
<path d="M8.625 10.25H9.87501V11.625H8.625V10.25Z" fill="#B8DB8B"/>
</g>
<defs>
<clipPath id="clip0">
<rect width="16" height="16" fill="white"/>
</clipPath>
</defs>
</svg>
