<svg width="18" height="18" viewBox="0 0 18 18" fill="none" xmlns="http://www.w3.org/2000/svg">
<g opacity="0.8">
<path d="M1.86211 14.5861H1.24139C1.07 14.5861 0.93103 14.4471 0.93103 14.2757V13.655H2.1724V14.2757C2.17243 14.4471 2.0335 14.5861 1.86211 14.5861Z" fill="#707487"/>
<path d="M16.7587 14.5861H16.138C15.9666 14.5861 15.8276 14.4471 15.8276 14.2757V13.655H17.069V14.2757C17.069 14.4471 16.9301 14.5861 16.7587 14.5861Z" fill="#707487"/>
<path d="M17.069 13.9655H0.931043C0.416848 13.9655 0 13.5487 0 13.0345V4.34486C0 3.83067 0.416848 3.41382 0.931043 3.41382H17.069C17.5832 3.41382 18 3.83067 18 4.34486V13.0345C18 13.5487 17.5832 13.9655 17.069 13.9655Z" fill="#AFB9D2"/>
<path d="M13.9655 13.3447H1.24135C0.898542 13.3447 0.620667 13.0669 0.620667 12.7241V4.65511C0.620667 4.3123 0.898542 4.03442 1.24135 4.03442H13.9655C14.3083 4.03442 14.5862 4.3123 14.5862 4.65511V12.7241C14.5862 13.0669 14.3083 13.3447 13.9655 13.3447Z" fill="#707487"/>
<path d="M13.3448 12.4138C13.5162 12.4138 13.6552 12.2749 13.6552 12.1035V5.27594C13.6552 5.10455 13.5162 4.96558 13.3448 4.96558C13.1735 4.96558 13.0345 5.10455 13.0345 5.27594V12.1035C13.0345 12.2749 13.1735 12.4138 13.3448 12.4138Z" fill="#AFB9D2"/>
<path d="M1.86212 12.4138H11.7932C11.9645 12.4138 12.1035 12.2749 12.1035 12.1035V5.27594C12.1035 5.10455 11.9645 4.96558 11.7932 4.96558H1.86212C1.69073 4.96558 1.55176 5.10455 1.55176 5.27594V12.1035C1.55176 12.2749 1.6907 12.4138 1.86212 12.4138Z" fill="#FFD764"/>
<path d="M16.2931 12.7241C16.7216 12.7241 17.0689 12.3767 17.0689 11.9482C17.0689 11.5197 16.7216 11.1724 16.2931 11.1724C15.8646 11.1724 15.5172 11.5197 15.5172 11.9482C15.5172 12.3767 15.8646 12.7241 16.2931 12.7241Z" fill="#E4EAF6"/>
<path d="M16.2931 10.5517C16.7216 10.5517 17.0689 10.2044 17.0689 9.77586C17.0689 9.34737 16.7216 9 16.2931 9C15.8646 9 15.5172 9.34737 15.5172 9.77586C15.5172 10.2044 15.8646 10.5517 16.2931 10.5517Z" fill="#E4EAF6"/>
<path d="M16.7586 7.7589H15.8276C15.6562 7.7589 15.5172 7.61993 15.5172 7.44854C15.5172 7.27716 15.6562 7.13818 15.8276 7.13818H16.7586C16.93 7.13818 17.069 7.27716 17.069 7.44854C17.0689 7.61993 16.93 7.7589 16.7586 7.7589Z" fill="#959CB3"/>
<path d="M16.7586 6.5172H15.8276C15.6562 6.5172 15.5172 6.37823 15.5172 6.20684C15.5172 6.03546 15.6562 5.89648 15.8276 5.89648H16.7586C16.93 5.89648 17.069 6.03546 17.069 6.20684C17.0689 6.37827 16.93 6.5172 16.7586 6.5172Z" fill="#959CB3"/>
<path d="M16.7586 5.27599H15.8276C15.6562 5.27599 15.5172 5.13702 15.5172 4.96563C15.5172 4.79425 15.6562 4.65527 15.8276 4.65527H16.7586C16.93 4.65527 17.069 4.79425 17.069 4.96563C17.0689 5.13702 16.93 5.27599 16.7586 5.27599Z" fill="#959CB3"/>
<path d="M6.56817 9.65994C6.48875 9.65994 6.40934 9.62963 6.34876 9.56902L3.43399 6.65306C3.31277 6.53184 3.31277 6.33532 3.43399 6.21421C3.55521 6.09299 3.75163 6.09299 3.87285 6.21421L6.78762 9.13017C6.90884 9.25139 6.90884 9.44791 6.78762 9.56902C6.72701 9.62967 6.64759 9.65994 6.56817 9.65994Z" fill="#FFE678"/>
<path d="M10.5518 11.8582C10.4723 11.8582 10.3929 11.8279 10.3323 11.7673L8.09604 9.5305C7.97482 9.40928 7.97482 9.21276 8.09604 9.09165C8.21726 8.97043 8.41368 8.97043 8.5349 9.09165L10.7712 11.3284C10.8924 11.4496 10.8924 11.6462 10.7712 11.7673C10.7106 11.8279 10.6312 11.8582 10.5518 11.8582Z" fill="#FFE678"/>
<path d="M7.38466 8.69027C7.30524 8.69027 7.22569 8.65996 7.16525 8.59936L6.4661 7.89989C6.34488 7.77867 6.34488 7.58214 6.4661 7.46103C6.58732 7.33981 6.78402 7.33981 6.90495 7.46103L7.60411 8.1605C7.72533 8.28172 7.72533 8.47824 7.60411 8.59936C7.5435 8.65993 7.46408 8.69027 7.38466 8.69027Z" fill="#FFF08C"/>
<path d="M11.7931 4.96558H1.86212C1.69073 4.96558 1.55176 5.10455 1.55176 5.27594V5.89662C1.55176 5.72523 1.69073 5.58626 1.86212 5.58626H11.7932C11.9645 5.58626 12.1035 5.72523 12.1035 5.89662V5.27594C12.1035 5.10455 11.9645 4.96558 11.7931 4.96558Z" fill="#FFBE5A"/>
</g>
</svg>
