<svg width="42" height="42" viewBox="0 0 42 42" fill="none" xmlns="http://www.w3.org/2000/svg">
<circle cx="21" cy="21" r="20.5" stroke="#919191"/>
<path fill-rule="evenodd" clip-rule="evenodd" d="M13.3799 16.5239C13.3799 16.1787 13.6597 15.8989 14.0049 15.8989H26.2192C26.5643 15.8989 26.8442 16.1787 26.8442 16.5239C26.8442 16.8691 26.5643 17.1489 26.2192 17.1489H14.0049C13.6597 17.1489 13.3799 16.8691 13.3799 16.5239Z" fill="#919191"/>
<path fill-rule="evenodd" clip-rule="evenodd" d="M13.3799 21.0476C13.3799 20.7024 13.6597 20.4226 14.0049 20.4226H23.5049C23.8501 20.4226 24.1299 20.7024 24.1299 21.0476C24.1299 21.3928 23.8501 21.6726 23.5049 21.6726H14.0049C13.6597 21.6726 13.3799 21.3928 13.3799 21.0476Z" fill="#919191"/>
<path fill-rule="evenodd" clip-rule="evenodd" d="M13.3799 25.5715C13.3799 25.2264 13.6597 24.9465 14.0049 24.9465H21.243C21.5882 24.9465 21.868 25.2264 21.868 25.5715C21.868 25.9167 21.5882 26.1965 21.243 26.1965H14.0049C13.6597 26.1965 13.3799 25.9167 13.3799 25.5715Z" fill="#919191"/>
<path fill-rule="evenodd" clip-rule="evenodd" d="M31.6926 15.4721C31.8503 15.2783 32.1352 15.2491 32.329 15.4068L33.8176 16.6183C34.0114 16.776 34.0406 17.0609 33.8829 17.2547L24.9985 28.1711C24.9599 28.2186 24.9119 28.2578 24.8577 28.2862L22.7 29.4171C22.5397 29.5012 22.3447 29.4816 22.2044 29.3673C22.064 29.2531 22.0053 29.0662 22.055 28.8922L22.7241 26.5498C22.7409 26.4909 22.7695 26.436 22.8082 26.3885L31.6926 15.4721ZM23.5685 26.8876L23.2148 28.1258L24.3554 27.528L32.8956 17.0345L32.1088 16.3941L23.5685 26.8876Z" fill="#919191"/>
<path fill-rule="evenodd" clip-rule="evenodd" d="M10.6656 13C10.6656 12.1025 11.3932 11.375 12.2906 11.375H30.1954C31.0929 11.375 31.8204 12.1025 31.8204 13V16.0714C31.8204 16.4166 31.5406 16.6964 31.1954 16.6964C30.8502 16.6964 30.5704 16.4166 30.5704 16.0714V13C30.5704 12.7929 30.4025 12.625 30.1954 12.625H12.2906C12.0835 12.625 11.9156 12.7929 11.9156 13V30C11.9156 30.2071 12.0835 30.375 12.2906 30.375H30.1954C30.4025 30.375 30.5704 30.2071 30.5704 30V20.1429C30.5704 19.7977 30.8502 19.5179 31.1954 19.5179C31.5406 19.5179 31.8204 19.7977 31.8204 20.1429V30C31.8204 30.8975 31.0929 31.625 30.1954 31.625H12.2906C11.3932 31.625 10.6656 30.8975 10.6656 30V13Z" fill="#919191"/>
<path fill-rule="evenodd" clip-rule="evenodd" d="M33.6275 14.6571L32.9477 15.546L33.3811 15.8774L34.0609 14.9885L33.6275 14.6571ZM34.1883 13.5123C33.7496 13.1768 33.1219 13.2604 32.7864 13.6991L31.8029 14.9852C31.4674 15.4239 31.5511 16.0515 31.9898 16.387L32.8203 17.0222C33.259 17.3577 33.8866 17.274 34.2221 16.8353L35.2057 15.5492C35.5412 15.1105 35.4575 14.4829 35.0188 14.1474L34.1883 13.5123Z" fill="#919191"/>
</svg>
