<svg width="41" height="36" viewBox="0 0 41 36" fill="none" xmlns="http://www.w3.org/2000/svg">
<path d="M5.00002 18.7325H11.5C11.7765 18.7325 12 18.5085 12 18.2325C12 17.9565 11.7765 17.7325 11.5 17.7325H5.00002C4.72352 17.7325 4.50002 17.9565 4.50002 18.2325C4.50002 18.5085 4.72352 18.7325 5.00002 18.7325Z" fill="#4C4C4C"/>
<path d="M18 20.7325H5.00002C4.72352 20.7325 4.50002 20.9565 4.50002 21.2325C4.50002 21.5085 4.72352 21.7325 5.00002 21.7325H18C18.2765 21.7325 18.5 21.5085 18.5 21.2325C18.5 20.9565 18.2765 20.7325 18 20.7325Z" fill="#4C4C4C"/>
<path d="M18 23.7325H5.00002C4.72352 23.7325 4.50002 23.9565 4.50002 24.2325C4.50002 24.5085 4.72352 24.7325 5.00002 24.7325H18C18.2765 24.7325 18.5 24.5085 18.5 24.2325C18.5 23.9565 18.2765 23.7325 18 23.7325Z" fill="#4C4C4C"/>
<path d="M27.036 7.26748L9.965 7.23248C8.33 7.23248 7 8.56248 7 10.1975V12.7595L2.965 12.768C1.33 12.768 0 14.098 0 15.733V26.3035C0 27.9385 1.33 29.268 2.965 29.268H6V34.268C6 34.4745 6.127 34.66 6.32 34.7345C6.3785 34.757 6.4395 34.768 6.5 34.768C6.638 34.768 6.7735 34.7105 6.87 34.6045L11.722 29.267L20.035 29.233C21.67 29.233 23 27.903 23 26.2685V26.212L25.63 29.105C25.7265 29.211 25.862 29.2685 26 29.2685C26.0605 29.2685 26.1215 29.2575 26.18 29.235C26.373 29.1605 26.5 28.975 26.5 28.7685V23.7685H27.035C28.67 23.7685 30 22.4385 30 20.804V10.2325C30 8.59798 28.6705 7.26798 27.036 7.26748ZM22 26.268C22 27.3515 21.1185 28.2325 20.033 28.2325L11.498 28.2675C11.358 28.268 11.224 28.3275 11.13 28.431L7 32.9745V28.7675C7 28.4915 6.7765 28.2675 6.5 28.2675H2.965C1.8815 28.2675 1 27.386 1 26.303V15.7325C1 14.649 1.8815 13.7675 2.966 13.7675L7.5 13.758C7.5005 13.758 7.5005 13.758 7.501 13.758L20.035 13.732C21.1185 13.732 22 14.6135 22 15.697V24.9175V26.268ZM29 20.803C29 21.8865 28.1185 22.7675 27.035 22.7675H26C25.7235 22.7675 25.5 22.9915 25.5 23.2675V27.4745L23 24.7245V15.6975C23 14.0625 21.67 12.7325 20.034 12.7325L8 12.757V10.197C8 9.11348 8.8815 8.23198 9.964 8.23198L27.0345 8.26698C27.035 8.26698 27.035 8.26698 27.0355 8.26698C28.119 8.26698 29.0005 9.14848 29.0005 10.232V20.803H29Z" fill="#4C4C4C"/>
<circle cx="36.5" cy="4.5" r="4.5" fill="#C43269"/>
</svg>
