<svg width="30" height="30" viewBox="0 0 30 30" fill="none" xmlns="http://www.w3.org/2000/svg">
<path d="M5.00002 12.7324H11.5C11.7765 12.7324 12 12.5084 12 12.2324C12 11.9564 11.7765 11.7324 11.5 11.7324H5.00002C4.72352 11.7324 4.50002 11.9564 4.50002 12.2324C4.50002 12.5084 4.72352 12.7324 5.00002 12.7324Z" fill="#4C4C4C"/>
<path d="M18 14.7324H5.00002C4.72352 14.7324 4.50002 14.9564 4.50002 15.2324C4.50002 15.5084 4.72352 15.7324 5.00002 15.7324H18C18.2765 15.7324 18.5 15.5084 18.5 15.2324C18.5 14.9564 18.2765 14.7324 18 14.7324Z" fill="#4C4C4C"/>
<path d="M18 17.7324H5.00002C4.72352 17.7324 4.50002 17.9564 4.50002 18.2324C4.50002 18.5084 4.72352 18.7324 5.00002 18.7324H18C18.2765 18.7324 18.5 18.5084 18.5 18.2324C18.5 17.9564 18.2765 17.7324 18 17.7324Z" fill="#4C4C4C"/>
<path d="M27.036 1.26742L9.965 1.23242C8.33 1.23242 7 2.56242 7 4.19742V6.75942L2.965 6.76792C1.33 6.76792 0 8.09792 0 9.73292V20.3034C0 21.9384 1.33 23.2679 2.965 23.2679H6V28.2679C6 28.4744 6.127 28.6599 6.32 28.7344C6.3785 28.7569 6.4395 28.7679 6.5 28.7679C6.638 28.7679 6.7735 28.7104 6.87 28.6044L11.722 23.2669L20.035 23.2329C21.67 23.2329 23 21.9029 23 20.2684V20.2119L25.63 23.1049C25.7265 23.2109 25.862 23.2684 26 23.2684C26.0605 23.2684 26.1215 23.2574 26.18 23.2349C26.373 23.1604 26.5 22.9749 26.5 22.7684V17.7684H27.035C28.67 17.7684 30 16.4384 30 14.8039V4.23242C30 2.59792 28.6705 1.26792 27.036 1.26742ZM22 20.2679C22 21.3514 21.1185 22.2324 20.033 22.2324L11.498 22.2674C11.358 22.2679 11.224 22.3274 11.13 22.4309L7 26.9744V22.7674C7 22.4914 6.7765 22.2674 6.5 22.2674H2.965C1.8815 22.2674 1 21.3859 1 20.3029V9.73242C1 8.64892 1.8815 7.76742 2.966 7.76742L7.5 7.75792C7.5005 7.75792 7.5005 7.75792 7.501 7.75792L20.035 7.73192C21.1185 7.73192 22 8.61342 22 9.69692V18.9174V20.2679ZM29 14.8029C29 15.8864 28.1185 16.7674 27.035 16.7674H26C25.7235 16.7674 25.5 16.9914 25.5 17.2674V21.4744L23 18.7244V9.69742C23 8.06242 21.67 6.73242 20.034 6.73242L8 6.75692V4.19692C8 3.11342 8.8815 2.23192 9.964 2.23192L27.0345 2.26692C27.035 2.26692 27.035 2.26692 27.0355 2.26692C28.119 2.26692 29.0005 3.14842 29.0005 4.23192V14.8029H29Z" fill="#4C4C4C"/>
</svg>
