<svg width="36" height="36" viewBox="0 0 36 36" fill="none" xmlns="http://www.w3.org/2000/svg">
<path d="M21.7734 18.5391L28.5117 27.6133H7.48828L12.6992 20.7852L16.4727 25.3672L21.7734 18.5391ZM31.3867 31.3867V4.61328H4.61328V31.3867H31.3867ZM31.3867 0.75C32.4049 0.75 33.3034 1.13932 34.082 1.91797C34.8607 2.69661 35.25 3.59505 35.25 4.61328V31.3867C35.25 32.4049 34.8607 33.3034 34.082 34.082C33.3034 34.8607 32.4049 35.25 31.3867 35.25H4.61328C3.59505 35.25 2.69661 34.8607 1.91797 34.082C1.13932 33.3034 0.75 32.4049 0.75 31.3867V4.61328C0.75 3.59505 1.13932 2.69661 1.91797 1.91797C2.69661 1.13932 3.59505 0.75 4.61328 0.75H31.3867Z" fill="#666666"/>
</svg>
