<svg width="33" height="48" viewBox="0 0 33 48" fill="none" xmlns="http://www.w3.org/2000/svg">
<path d="M30.7903 8.75138C27.9734 3.18225 22.3395 0 16.4496 0C13.3765 0 10.3035 1.0607 7.74273 2.6519C0.0603279 7.42535 -2.24441 18.2983 2.36506 26.5193L8.91892 36.9231C9.68712 38.2491 15.1622 46.1538 16.4496 48C17.8378 46.1538 22.675 38.6068 23.76 37.0286C30.36 27.4286 30.7901 25.7061 30.7901 25.7238C33.8632 20.4198 33.6073 14.0552 30.7903 8.75138Z" fill="#7B3CA5"/>
<path d="M7.31852 22.2773C6.12158 19.9769 5.8318 17.3109 6.50652 14.8071C7.18123 12.3032 8.77129 10.1438 10.962 8.75629C13.1528 7.36875 15.7845 6.85413 18.3366 7.31428C20.8886 7.77442 23.1749 9.1758 24.7431 11.2411C26.3112 13.3064 27.047 15.8851 26.8047 18.4669C26.5625 21.0488 25.3598 23.4456 23.4348 25.1831C21.5098 26.9207 19.0027 27.8722 16.4097 27.8496C13.8166 27.827 11.3265 26.8317 9.4321 25.0609" stroke="#F29E50" stroke-width="1.5" stroke-miterlimit="10" stroke-linecap="round"/>
<path d="M22.055 22.7394C20.7422 24.1319 18.9545 24.9807 17.0456 25.1178C15.1368 25.255 13.2461 24.6705 11.7477 23.48C10.2493 22.2895 9.25245 20.5799 8.95452 18.6895C8.65659 16.7991 9.07927 14.8657 10.1389 13.2721C11.1985 11.6785 12.8178 10.5407 14.6763 10.0842C16.5348 9.6276 18.497 9.88543 20.1744 10.8066C21.8519 11.7278 23.1223 13.2452 23.7343 15.0585C24.3462 16.8718 24.2551 18.8487 23.4789 20.598" stroke="white" stroke-width="1.5" stroke-miterlimit="10" stroke-linecap="round"/>
</svg>
