<svg width="42" height="42" viewBox="0 0 42 42" fill="none" xmlns="http://www.w3.org/2000/svg">
<circle cx="21" cy="21" r="20.5" stroke="#919191"/>
<path fill-rule="evenodd" clip-rule="evenodd" d="M21 20.6272C24.4179 20.6272 27.1886 17.8565 27.1886 14.4386C27.1886 11.0207 24.4179 8.25 21 8.25C17.5821 8.25 14.8114 11.0207 14.8114 14.4386C14.8114 17.8565 17.5821 20.6272 21 20.6272ZM21 21.8772C25.1082 21.8772 28.4386 18.5468 28.4386 14.4386C28.4386 10.3304 25.1082 7 21 7C16.8918 7 13.5614 10.3304 13.5614 14.4386C13.5614 18.5468 16.8918 21.8772 21 21.8772Z" fill="#919191"/>
<path fill-rule="evenodd" clip-rule="evenodd" d="M21 14.6762C21.9529 14.6762 22.7254 13.9037 22.7254 12.9508C22.7254 11.9978 21.9529 11.2253 21 11.2253C20.047 11.2253 19.2745 11.9978 19.2745 12.9508C19.2745 13.9037 20.047 14.6762 21 14.6762ZM21 15.9262C22.6433 15.9262 23.9754 14.5941 23.9754 12.9508C23.9754 11.3075 22.6433 9.97534 21 9.97534C19.3567 9.97534 18.0245 11.3075 18.0245 12.9508C18.0245 14.5941 19.3567 15.9262 21 15.9262Z" fill="#919191"/>
<path fill-rule="evenodd" clip-rule="evenodd" d="M21 16.5515C18.9956 16.5515 17.2489 17.6585 16.3395 19.2974L15.2465 18.6909C16.3673 16.6709 18.5233 15.3015 21 15.3015C23.4766 15.3015 25.6326 16.6709 26.7535 18.6909L25.6605 19.2974C24.7511 17.6585 23.0044 16.5515 21 16.5515Z" fill="#919191"/>
<path fill-rule="evenodd" clip-rule="evenodd" d="M16.3509 23.5767C16.6961 23.5767 16.9759 23.8565 16.9759 24.2017V33.4999C16.9759 33.8451 16.6961 34.1249 16.3509 34.1249C16.0057 34.1249 15.7259 33.8451 15.7259 33.4999V24.2017C15.7259 23.8565 16.0057 23.5767 16.3509 23.5767Z" fill="#919191"/>
<path fill-rule="evenodd" clip-rule="evenodd" d="M21 23.5767C21.3452 23.5767 21.625 23.8565 21.625 24.2017V33.4999C21.625 33.8451 21.3452 34.1249 21 34.1249C20.6548 34.1249 20.375 33.8451 20.375 33.4999V24.2017C20.375 23.8565 20.6548 23.5767 21 23.5767Z" fill="#919191"/>
<path fill-rule="evenodd" clip-rule="evenodd" d="M25.6492 23.5767C25.9943 23.5767 26.2742 23.8565 26.2742 24.2017V33.4999C26.2742 33.8451 25.9943 34.1249 25.6492 34.1249C25.304 34.1249 25.0242 33.8451 25.0242 33.4999V24.2017C25.0242 23.8565 25.304 23.5767 25.6492 23.5767Z" fill="#919191"/>
<path fill-rule="evenodd" clip-rule="evenodd" d="M11.7018 23.5767H30.2983V24.8267H11.7018V23.5767Z" fill="#919191"/>
<path fill-rule="evenodd" clip-rule="evenodd" d="M11.7018 32.875H30.2983V34.125H11.7018V32.875Z" fill="#919191"/>
<path fill-rule="evenodd" clip-rule="evenodd" d="M11.7018 28.2258H30.2983V29.4758H11.7018V28.2258Z" fill="#919191"/>
<path fill-rule="evenodd" clip-rule="evenodd" d="M11.7018 23.5767C12.047 23.5767 12.3268 23.8565 12.3268 24.2017V33.4999C12.3268 33.8451 12.047 34.1249 11.7018 34.1249C11.3566 34.1249 11.0768 33.8451 11.0768 33.4999V24.2017C11.0768 23.8565 11.3566 23.5767 11.7018 23.5767Z" fill="#919191"/>
<path fill-rule="evenodd" clip-rule="evenodd" d="M30.2983 23.5767C30.6435 23.5767 30.9233 23.8565 30.9233 24.2017V33.4999C30.9233 33.8451 30.6435 34.1249 30.2983 34.1249C29.9531 34.1249 29.6733 33.8451 29.6733 33.4999V24.2017C29.6733 23.8565 29.9531 23.5767 30.2983 23.5767Z" fill="#919191"/>
</svg>
