<svg width="18" height="18" viewBox="0 0 18 18" fill="none" xmlns="http://www.w3.org/2000/svg">
<g opacity="0.8">
<path d="M2.8125 3.72632V13.8794C2.96718 15.1873 5.68126 16.2419 8.99998 16.2419C12.3187 16.2419 15.0328 15.2013 15.1875 13.8794H15.2015V3.72632H2.8125Z" fill="#324D5B"/>
<path d="M2.8125 9.05599C4.42967 9.67473 6.60935 10.0685 8.99998 10.0685C11.4047 10.0685 13.5703 9.6888 15.1875 9.05599V3.72632H2.8125V9.05599Z" fill="#2D4552"/>
<path d="M8.05782 16.2138L8.01561 8.5498H5.21719V15.7217C6.01875 15.9748 6.98908 16.1435 8.05782 16.2138Z" fill="#3B5562"/>
<path d="M8.02968 10.0404L8.01561 8.5498H5.21719V9.73105C6.08905 9.89979 7.03125 9.99823 8.02968 10.0404Z" fill="#354C58"/>
<path d="M9 2.03857C13.9641 2.03857 18 3.66982 18 5.69482C18 7.71982 13.9641 9.35106 9 9.35106C4.03594 9.35106 0 7.71982 0 5.69482C0 3.66982 4.03594 2.03857 9 2.03857Z" fill="#465765"/>
<path d="M9.00001 3.44482C12.4172 3.44482 15.1875 4.38702 15.1875 5.5542C15.1875 6.72138 12.4172 7.66357 9.00001 7.66357C5.58285 7.66357 2.8125 6.72138 2.8125 5.5542C2.8125 4.38702 5.58282 3.44482 9.00001 3.44482Z" fill="#2B414D"/>
<path d="M13.3312 1.84174C13.5281 1.98235 13.5563 2.24957 13.4156 2.44642L8.22656 8.76051C8.08595 8.94332 7.8047 8.98552 7.62189 8.84488C7.42501 8.70427 7.39687 8.43705 7.53752 8.24021L12.7125 1.92615C12.8672 1.74334 13.1344 1.70114 13.3312 1.84174Z" fill="#EFEFEF"/>
<path d="M8.21249 7.41066L8.94375 7.8888L12.7687 3.23408L12.0375 2.77002L8.21249 7.41066Z" fill="#D07C40"/>
</g>
</svg>
