<svg width="16" height="16" viewBox="0 0 16 16" fill="none" xmlns="http://www.w3.org/2000/svg">
<g opacity="0.8" clip-path="url(#clip0)">
<path d="M12.625 14C12.2125 14 11.8749 14.3375 11.8749 14.75V15.25C11.8749 15.6625 12.2125 16 12.625 16C13.0375 16 13.375 15.6625 13.375 15.25V14.75C13.3749 14.3375 13.0375 14 12.625 14ZM3.37494 14C2.96244 14 2.62494 14.3375 2.62494 14.75V15.25C2.62494 15.6625 2.96244 16 3.37494 16C3.78745 16 4.12495 15.6625 4.12495 15.25V14.75C4.12495 14.3375 3.78745 14 3.37494 14Z" fill="#2B414D"/>
<path d="M7.99999 0C11.5875 0 14.5 2.91249 14.5 6.49999V8C14.5 11.5875 11.5875 14.5 7.99999 14.5C4.41249 14.5 1.5 11.5875 1.5 8V6.49999C1.5 2.91249 4.41249 0 7.99999 0Z" fill="#465765"/>
<path d="M7.93748 8.55005C11.4375 8.55005 13.1375 9.43754 13.1375 9.86255V12.275C13.1375 12.7625 12.7375 12.7125 12.25 12.7125H3.75C3.26251 12.7125 2.86251 12.7625 2.86251 12.275V9.86255C2.86251 9.45005 4.43749 8.55005 7.93748 8.55005ZM14.875 9.50004V14.2625C14.875 14.7375 14.4875 15.125 14 15.125H1.99999C1.51249 15.125 1.125 14.7375 1.125 14.2625V9.50004H14.875Z" fill="#324D5B"/>
<path d="M7.93747 9C11.4375 9 13.125 9.87499 13.125 10.3V12.6875C13.125 13.1625 12.725 13.125 12.25 13.125H3.74999C3.26249 13.125 2.875 13.175 2.875 12.6875V10.3C2.875 9.9 4.43747 9 7.93747 9Z" fill="#74868F"/>
<path d="M2.125 11.25C3.29861 11.25 4.25 10.2986 4.25 9.125C4.25 7.9514 3.29861 7 2.125 7C0.951396 7 0 7.9514 0 9.125C0 10.2986 0.951396 11.25 2.125 11.25Z" fill="#324D5B"/>
<path d="M13.875 11.25C15.0486 11.25 16 10.2986 16 9.125C16 7.9514 15.0486 7 13.875 7C12.7014 7 11.75 7.9514 11.75 9.125C11.75 10.2986 12.7014 11.25 13.875 11.25Z" fill="#324D5B"/>
<path d="M8.56251 5.37502L8.90002 5.03751C9.025 4.91253 9.025 4.72502 8.90002 4.6C8.77503 4.47502 8.58752 4.47502 8.4625 4.6L8.125 4.9375L7.78749 4.6C7.66251 4.47502 7.475 4.47502 7.34998 4.6C7.225 4.72499 7.225 4.9125 7.34998 5.03751L7.69999 5.37502L7.34998 5.72503C7.225 5.85001 7.225 6.03752 7.34998 6.16254C7.47497 6.28752 7.66248 6.28752 7.78749 6.16254L8.1375 5.81253L8.48751 6.16254C8.6125 6.28752 8.80001 6.28752 8.92503 6.16254C9.05001 6.03755 9.05001 5.85004 8.92503 5.72503L8.56251 5.37502ZM10.6875 4.25002C10.925 4.25002 11.125 4.05001 11.125 3.81251C11.125 3.57501 10.925 3.375 10.6875 3.375C10.45 3.375 10.25 3.57501 10.25 3.81251C10.25 4.05001 10.45 4.25002 10.6875 4.25002ZM5.56251 6.50001C5.32501 6.50001 5.125 6.70002 5.125 6.93752C5.125 7.17502 5.32501 7.37503 5.56251 7.37503C5.80001 7.37503 6.00002 7.17502 6.00002 6.93752C5.99999 6.70002 5.80001 6.50001 5.56251 6.50001ZM10.6875 6.50001C10.45 6.50001 10.25 6.70002 10.25 6.93752C10.25 7.17502 10.45 7.37503 10.6875 7.37503C10.925 7.37503 11.125 7.17502 11.125 6.93752C11.125 6.70002 10.925 6.50001 10.6875 6.50001ZM5.56251 3.375C5.32501 3.375 5.125 3.57501 5.125 3.81251C5.125 4.05001 5.32501 4.25002 5.56251 4.25002C5.80001 4.25002 6.00002 4.05001 6.00002 3.81251C6.00002 3.57501 5.80001 3.375 5.56251 3.375Z" fill="#324D5B"/>
<path d="M2.12497 10.5876C2.93269 10.5876 3.58747 9.93281 3.58747 9.1251C3.58747 8.31738 2.93269 7.6626 2.12497 7.6626C1.31726 7.6626 0.662476 8.31738 0.662476 9.1251C0.662476 9.93281 1.31726 10.5876 2.12497 10.5876Z" fill="#516873"/>
<path d="M13.875 10.5876C14.6827 10.5876 15.3375 9.93281 15.3375 9.1251C15.3375 8.31738 14.6827 7.6626 13.875 7.6626C13.0673 7.6626 12.4125 8.31738 12.4125 9.1251C12.4125 9.93281 13.0673 10.5876 13.875 10.5876Z" fill="#516873"/>
<path d="M2.875 12.6875C2.875 13.05 3.1125 13.1125 3.4375 13.125H12.575C12.9 13.1125 13.1375 13.0625 13.1375 12.6875V11.375H2.875V12.6875Z" fill="#67757D"/>
</g>
<defs>
<clipPath id="clip0">
<rect width="16" height="16" fill="white"/>
</clipPath>
</defs>
</svg>
