<svg width="16" height="16" viewBox="0 0 16 16" fill="none" xmlns="http://www.w3.org/2000/svg">
<g opacity="0.8" clip-path="url(#clip0)">
<path d="M13.75 9H2.24999C1.01251 9 0 10.0125 0 11.25V13C0 13.6875 0.562496 14.25 1.25001 14.25H14.75C15.4375 14.25 16 13.6875 16 13V11.25C16 10.0125 14.9875 9 13.75 9Z" fill="#EFC75E"/>
<path d="M0.0125122 11H15.9875C15.8625 9.87499 14.9125 9 13.75 9H2.25C1.08752 8.99997 0.137497 9.87496 0.0125122 11Z" fill="#D7B354"/>
<path d="M0.0125122 11H15.9875C15.9625 10.825 15.925 10.6625 15.875 10.5H0.124993C0.0750048 10.6625 0.037522 10.825 0.0125122 11Z" fill="#C19D3D"/>
<path d="M14.5 6C14.5 3.51252 12.4875 1.5 10 1.5H6.00001C3.51252 1.5 1.5 3.51249 1.5 6V14.875C1.5 15.5 2 16 2.62499 16H13.375C14 16 14.5 15.5 14.5 14.875L14.5 6Z" fill="#F4F0D3"/>
<path d="M6 1.5C3.51252 1.5 1.5 3.51249 1.5 6V14.875C1.5 15.5 2 16 2.62499 16H7.99999V1.5H6Z" fill="#E8E4C8"/>
<path d="M9.28748 1.50001C9.03748 1.05003 8.54998 0.750006 7.99999 0.750006C7.45 0.750006 6.96251 1.05 6.7125 1.50001H5.875C6.18749 0.624989 7.01249 0 7.99999 0C8.98749 0 9.8125 0.624989 10.125 1.50001H9.28748ZM3.87499 8H12.1249C12.4749 8 12.7499 8.27501 12.7499 8.62499V13.625C12.7499 13.975 12.4749 14.25 12.1249 14.25H3.87499C3.52498 14.25 3.25 13.9749 3.25 13.625V8.62499C3.25 8.27498 3.52501 8 3.87499 8Z" fill="#EFC75E"/>
<path d="M9.58749 4.60003L8.40001 3.41254C8.18753 3.20005 7.82501 3.20005 7.61253 3.41254L6.42505 4.60003C6.21256 4.81251 6.21256 5.17503 6.42505 5.38751L7.61253 6.575C7.82501 6.78749 8.18753 6.78749 8.40001 6.575L9.58749 5.38751C9.79998 5.17503 9.79998 4.82505 9.58749 4.60003ZM7.75002 5.37504C7.75002 5.45004 7.70003 5.50003 7.62503 5.50003H7.37503C7.30004 5.50003 7.25005 5.45004 7.25005 5.37504V4.62504C7.25005 4.55004 7.30004 4.50005 7.37503 4.50005H7.62503C7.70003 4.50005 7.75002 4.55004 7.75002 4.62504V5.37504ZM8.74999 5.37504C8.74999 5.45004 8.7 5.50003 8.625 5.50003H8.375C8.30001 5.50003 8.25002 5.45004 8.25002 5.37504V4.62504C8.25002 4.55004 8.30001 4.50005 8.375 4.50005H8.625C8.7 4.50005 8.74999 4.55004 8.74999 4.62504V5.37504Z" fill="#4681A0"/>
<path d="M4.62499 9.25H11.375C11.45 9.25 11.5 9.29999 11.5 9.37498V9.62499C11.5 9.69998 11.45 9.74997 11.375 9.74997H4.62499C4.54999 9.74997 4.5 9.69998 4.5 9.62499V9.37498C4.5 9.31249 4.54999 9.25 4.62499 9.25Z" fill="#C19D3D"/>
<path d="M3.75 13.625V8.62499C3.75 8.27498 4.02502 8 4.37499 8H3.87499C3.52498 8 3.25 8.27501 3.25 8.62499V13.625C3.25 13.975 3.52501 14.25 3.87499 14.25H4.37499C4.02498 14.25 3.75 13.975 3.75 13.625Z" fill="#DCB757"/>
</g>
<defs>
<clipPath id="clip0">
<rect width="16" height="16" fill="white"/>
</clipPath>
</defs>
</svg>
