<svg width="18" height="16" viewBox="0 0 18 16" fill="none" xmlns="http://www.w3.org/2000/svg">
<path d="M12.3272 1.03964V0.311436C12.3298 0.232399 12.3 0.155527 12.2441 0.097307C12.1883 0.0390867 12.1108 0.00415374 12.0284 0L11.3734 0C11.2108 0 11.1224 0.139688 11.1224 0.311436V1.03964H7.05841V0.311436C7.06236 0.273937 7.05847 0.236062 7.04698 0.200017C7.03549 0.163973 7.01662 0.13048 6.99147 0.101492C6.96633 0.0725044 6.93542 0.0486012 6.90053 0.0311763C6.86564 0.0137514 6.82749 0.00315333 6.78828 0L6.12132 0C6.08208 0.00282818 6.04384 0.0132331 6.00891 0.0305885C5.97398 0.0479438 5.94308 0.0718906 5.91807 0.100987C5.89305 0.130084 5.87444 0.163728 5.86336 0.199895C5.85228 0.236062 5.84895 0.274004 5.85357 0.311436V1.03964H1.01987C0.938069 1.04438 0.86146 1.07964 0.806487 1.13786C0.751514 1.19609 0.72256 1.27264 0.725837 1.35108V15.6886C0.72256 15.767 0.751514 15.8436 0.806487 15.9018C0.86146 15.96 0.938069 15.9953 1.01987 16H17.1346C17.2164 15.9953 17.293 15.96 17.348 15.9018C17.403 15.8436 17.4319 15.767 17.4286 15.6886V1.35108C17.4286 1.17933 17.0557 1.03964 16.8955 1.03964H12.3272ZM5.85357 1.9854V2.67239C5.85357 2.90139 5.98983 3.08001 6.15478 3.08001H6.75959C6.92454 3.08001 7.0608 2.89681 7.0608 2.67239V1.9854H11.1247V2.67239C11.1247 2.90139 11.261 3.07772 11.426 3.07772H12.0308C12.1957 3.07772 12.332 2.89452 12.332 2.67239V1.9854H16.121C16.2859 1.9854 16.4126 2.1686 16.4126 2.39302V4.28911C16.4126 4.5181 16.2859 4.69672 16.121 4.69672H2.03347C1.86852 4.69672 1.74182 4.51352 1.74182 4.28911V2.39073C1.74182 2.16173 1.86852 1.98311 2.03347 1.98311L5.85357 1.9854ZM1.74182 14.7657V5.98826C1.7379 5.90761 1.76732 5.82873 1.82371 5.76872C1.88009 5.70871 1.95889 5.6724 2.04303 5.66767H16.1114C16.1956 5.6724 16.2744 5.70871 16.3308 5.76872C16.3871 5.82873 16.4166 5.90761 16.4126 5.98826V14.7657C16.4166 14.8464 16.3871 14.9252 16.3308 14.9853C16.2744 15.0453 16.1956 15.0816 16.1114 15.0863H2.04303C1.95889 15.0816 1.88009 15.0453 1.82371 14.9853C1.76732 14.9252 1.7379 14.8464 1.74182 14.7657Z" fill="#7B3CA5"/>
<path d="M6.2813 11.2461H4.78959C4.72619 11.2461 4.66539 11.2702 4.62055 11.3132C4.57572 11.3561 4.55054 11.4144 4.55054 11.4751V13.0941C4.55054 13.1548 4.57572 13.2131 4.62055 13.256C4.66539 13.299 4.72619 13.3231 4.78959 13.3231H6.27652C6.33992 13.3231 6.40072 13.299 6.44555 13.256C6.49039 13.2131 6.51557 13.1548 6.51557 13.0941V11.4751C6.51558 11.4151 6.49106 11.3576 6.44725 11.3148C6.40345 11.2719 6.34387 11.2473 6.2813 11.2461Z" fill="#7B3CA5"/>
<path d="M9.82632 11.2461H8.3394C8.276 11.2461 8.21519 11.2702 8.17036 11.3132C8.12553 11.3561 8.10034 11.4144 8.10034 11.4751V13.0941C8.10034 13.1548 8.12553 13.2131 8.17036 13.256C8.21519 13.299 8.276 13.3231 8.3394 13.3231H9.82632C9.88972 13.3231 9.95053 13.299 9.99536 13.256C10.0402 13.2131 10.0654 13.1548 10.0654 13.0941V11.4751C10.0654 11.4144 10.0402 11.3561 9.99536 11.3132C9.95053 11.2702 9.88972 11.2461 9.82632 11.2461Z" fill="#7B3CA5"/>
<path d="M13.3573 11.2461H11.8704C11.807 11.2461 11.7462 11.2702 11.7014 11.3132C11.6565 11.3561 11.6313 11.4144 11.6313 11.4751V13.0941C11.6313 13.1548 11.6565 13.2131 11.7014 13.256C11.7462 13.299 11.807 13.3231 11.8704 13.3231H13.3573C13.4207 13.3231 13.4815 13.299 13.5264 13.256C13.5712 13.2131 13.5964 13.1548 13.5964 13.0941V11.4751C13.5964 11.4144 13.5712 11.3561 13.5264 11.3132C13.4815 11.2702 13.4207 11.2461 13.3573 11.2461Z" fill="#7B3CA5"/>
<path d="M9.82632 7.49756H8.3394C8.276 7.49756 8.21519 7.52169 8.17036 7.56463C8.12553 7.60758 8.10034 7.66582 8.10034 7.72656V9.34556C8.10034 9.4063 8.12553 9.46454 8.17036 9.50749C8.21519 9.55043 8.276 9.57456 8.3394 9.57456H9.82632C9.88972 9.57456 9.95053 9.55043 9.99536 9.50749C10.0402 9.46454 10.0654 9.4063 10.0654 9.34556V7.72656C10.0654 7.66582 10.0402 7.60758 9.99536 7.56463C9.95053 7.52169 9.88972 7.49756 9.82632 7.49756Z" fill="#7B3CA5"/>
<path d="M13.3573 7.49756H11.8704C11.807 7.49756 11.7462 7.52169 11.7014 7.56463C11.6565 7.60758 11.6313 7.66582 11.6313 7.72656V9.34556C11.6313 9.4063 11.6565 9.46454 11.7014 9.50749C11.7462 9.55043 11.807 9.57456 11.8704 9.57456H13.3573C13.4207 9.57456 13.4815 9.55043 13.5264 9.50749C13.5712 9.46454 13.5964 9.4063 13.5964 9.34556V7.72656C13.5964 7.66582 13.5712 7.60758 13.5264 7.56463C13.4815 7.52169 13.4207 7.49756 13.3573 7.49756Z" fill="#7B3CA5"/>
<path d="M6.2813 7.49756H4.78959C4.72619 7.49756 4.66539 7.52169 4.62055 7.56463C4.57572 7.60758 4.55054 7.66582 4.55054 7.72656V9.34556C4.55054 9.4063 4.57572 9.46454 4.62055 9.50749C4.66539 9.55043 4.72619 9.57456 4.78959 9.57456H6.27652C6.33992 9.57456 6.40072 9.55043 6.44555 9.50749C6.49039 9.46454 6.51557 9.4063 6.51557 9.34556V7.72656C6.51558 7.66661 6.49106 7.60904 6.44725 7.56623C6.40345 7.52341 6.34387 7.49876 6.2813 7.49756Z" fill="#7B3CA5"/>
</svg>
