<svg width="16" height="16" viewBox="0 0 16 16" fill="none" xmlns="http://www.w3.org/2000/svg">
<g opacity="0.8">
<path d="M12 12V12.875C12 13.225 12.275 13.5 12.6125 13.5H13.625V12H12V12ZM2.375 13.5H3.38751C3.72502 13.5 4 13.225 4 12.8751V12.0001H2.375C2.375 12.0001 2.375 13.5 2.375 13.5Z" fill="#1E2E37"/>
<path d="M13.125 12V14.0375C13.125 14.5 13.4999 14.875 13.95 14.875H14.4125C14.8749 14.875 15.2375 14.5 15.2375 14.0375V11.75L13.125 12ZM0.75 14.0375C0.75 14.5 1.12499 14.875 1.575 14.875H2.03749C2.49998 14.875 2.8625 14.5 2.8625 14.0375V12L0.75 11.75V14.0375Z" fill="#324D5B"/>
<path d="M7.94999 1.125H7.98751C12.225 1.125 13.25 2.93751 13.25 6.37498H2.75C2.75 2.93751 3.78749 1.125 7.94999 1.125Z" fill="#BF392B"/>
<path d="M7.96251 1.75H8.00002C11.725 1.75 12.625 3.34999 12.625 6.37499H3.375C3.375 3.35002 4.28751 1.75 7.96251 1.75Z" fill="#85C6DC"/>
<path d="M7.99999 10.625C10.55 10.625 12.625 11.1 12.625 11.6875C12.625 12.275 10.55 12.75 7.99999 12.75C5.44998 12.75 3.375 12.275 3.375 11.6875C3.37497 11.1 5.44998 10.625 7.99999 10.625Z" fill="#85281E"/>
<path d="M2.80001 6.75001L8.01251 6L13.2 6.75001C14.75 6.75001 16 8.01249 16 9.5875V10.2C16 10.65 15.8 11.0125 15.2 11.0125H0.799994C0.212487 11 0 10.6375 0 10.1875V9.57503C0 8.01249 1.25001 6.75001 2.80001 6.75001Z" fill="#BF392B"/>
<path d="M0.637492 10.875H15.35C15.5625 10.875 15.7375 11.0375 15.7375 11.25C15.7375 11.6625 15.3874 12 14.95 12H1.03749C0.599977 12 0.25 11.6625 0.25 11.25C0.25 11.0375 0.425005 10.875 0.637492 10.875Z" fill="#E4E7E7"/>
<path d="M13.4125 6.36247C13.4125 6.36247 11.9625 6.93747 11.2 9.47498C11.2 9.47498 10.775 10.875 9.80001 10.875H6.20004C5.22504 10.875 4.80003 9.47498 4.80003 9.47498C4.03752 6.93747 2.60003 6.38748 2.60003 6.38748C2.10003 6.18747 2.60003 5.88748 2.60003 5.88748C4.62503 4.73747 8.00004 4.87496 8.00004 4.87496C8.00004 4.87496 11.3625 4.72497 13.4125 5.88748C13.4125 5.88748 13.875 6.14995 13.4125 6.36247Z" fill="#E2574C"/>
<path d="M5.35001 9.30002C5.4125 9.50004 5.7375 10.25 6.15 10.25H7.24998V5.5C5.34997 5.5 4.1125 5.85001 3.375 6.17501C3.95 6.61252 4.81252 7.525 5.35001 9.30002ZM8.75 5.5V10.25H9.7375C10.1625 10.25 10.475 9.50001 10.5375 9.30002C11.0625 7.55004 11.9125 6.62503 12.4875 6.17501C11.775 5.85001 10.575 5.5125 8.75 5.5Z" fill="#BF392B"/>
<path d="M7.75 4.875H8.25V10.875H7.75V4.875Z" fill="#E87970"/>
<path d="M2.24999 7.875C1.625 7.875 1.125 8.375 1.125 8.99999C1.125 9.62498 1.625 10.125 2.24999 10.125C2.87498 10.125 3.37499 9.62498 3.37499 8.99999C3.37499 8.37503 2.87501 7.875 2.24999 7.875ZM13.75 7.875C13.125 7.875 12.625 8.375 12.625 8.99999C12.625 9.62498 13.125 10.125 13.75 10.125C14.375 10.125 14.875 9.62498 14.875 8.99999C14.875 8.37503 14.375 7.875 13.75 7.875Z" fill="#E0E3E4"/>
<path d="M2.24999 8.625C2.0375 8.625 1.875 8.7875 1.875 8.99999C1.875 9.21247 2.0375 9.37497 2.24999 9.37497C2.46247 9.37497 2.62497 9.21247 2.62497 8.99999C2.62497 8.7875 2.45 8.625 2.24999 8.625ZM13.75 8.625C13.5375 8.625 13.375 8.7875 13.375 8.99999C13.375 9.21247 13.5375 9.37497 13.75 9.37497C13.9625 9.37497 14.125 9.21247 14.125 8.99999C14.125 8.7875 13.9625 8.625 13.75 8.625Z" fill="#C0C8CB"/>
<path d="M13.5374 6.125H13.3124C13.0624 6.125 12.8625 6.31251 12.8625 6.56251V6.775C12.8625 6.89998 13.1125 6.98749 13.4125 6.98749C13.7249 6.98749 13.9624 6.88748 13.9624 6.775V6.56251C13.9875 6.32498 13.7874 6.125 13.5374 6.125ZM2.66246 6.125H2.43747C2.18747 6.125 1.98749 6.31251 1.98749 6.56251V6.775C1.98749 6.89998 2.23749 6.98749 2.53748 6.98749C2.83747 6.98749 3.08747 6.88748 3.08747 6.775V6.56251C3.11248 6.32498 2.91247 6.125 2.66246 6.125Z" fill="#F4B459"/>
<path d="M3.72498 3.88751C4.34996 3.57501 6.16247 2.77502 7.97498 2.77502C9.79999 2.77502 11.6375 3.57501 12.2625 3.88751C11.7374 2.475 10.5125 1.75 7.99996 1.75H7.96244C5.48746 1.75 4.26249 2.47503 3.72498 3.88751Z" fill="#92D2E8"/>
<path d="M13.75 8.125C14.2375 8.125 14.625 8.51249 14.625 8.99999C14.625 9.48749 14.2375 9.87498 13.75 9.87498C13.2625 9.87498 12.875 9.48749 12.875 8.99999C12.875 8.51252 13.2625 8.125 13.75 8.125ZM2.24999 8.125C2.73749 8.125 3.12498 8.51249 3.12498 8.99999C3.12498 9.48749 2.73749 9.87498 2.24999 9.87498C1.76249 9.87498 1.375 9.48749 1.375 8.99999C1.375 8.51252 1.76249 8.125 2.24999 8.125ZM13.75 7.875C13.125 7.875 12.625 8.375 12.625 8.99999C12.625 9.62498 13.125 10.125 13.75 10.125C14.375 10.125 14.875 9.62498 14.875 8.99999C14.875 8.37503 14.375 7.875 13.75 7.875ZM2.24999 7.875C1.625 7.875 1.125 8.375 1.125 8.99999C1.125 9.62498 1.625 10.125 2.24999 10.125C2.87498 10.125 3.37499 9.62498 3.37499 8.99999C3.37499 8.37503 2.87501 7.875 2.24999 7.875Z" fill="#CCD0D2"/>
</g>
</svg>
