<svg width="42" height="42" viewBox="0 0 42 42" fill="none" xmlns="http://www.w3.org/2000/svg">
<circle cx="21" cy="21" r="21" fill="#7B3CA5"/>
<path fill-rule="evenodd" clip-rule="evenodd" d="M12.1 28.1499C12.5694 28.1499 12.95 27.7694 12.95 27.2999C12.95 26.8305 12.5694 26.45 12.1 26.45C11.6306 26.45 11.25 26.8305 11.25 27.2999C11.25 27.7694 11.6306 28.1499 12.1 28.1499ZM12.1 29.3999C13.2598 29.3999 14.2 28.4597 14.2 27.2999C14.2 26.1402 13.2598 25.2 12.1 25.2C10.9402 25.2 10 26.1402 10 27.2999C10 28.4597 10.9402 29.3999 12.1 29.3999Z" fill="white"/>
<path fill-rule="evenodd" clip-rule="evenodd" d="M12.1 21.4302C12.5694 21.4302 12.95 21.0497 12.95 20.5802C12.95 20.1108 12.5694 19.7302 12.1 19.7302C11.6306 19.7302 11.25 20.1108 11.25 20.5802C11.25 21.0497 11.6306 21.4302 12.1 21.4302ZM12.1 22.6802C13.2598 22.6802 14.2 21.74 14.2 20.5802C14.2 19.4204 13.2598 18.4802 12.1 18.4802C10.9402 18.4802 10 19.4204 10 20.5802C10 21.74 10.9402 22.6802 12.1 22.6802Z" fill="white"/>
<path fill-rule="evenodd" clip-rule="evenodd" d="M17.7749 21.0002C17.7749 20.6551 18.0547 20.3752 18.3999 20.3752H30.9999C31.3451 20.3752 31.6249 20.6551 31.6249 21.0002C31.6249 21.3454 31.3451 21.6252 30.9999 21.6252H18.3999C18.0547 21.6252 17.7749 21.3454 17.7749 21.0002Z" fill="white"/>
<path fill-rule="evenodd" clip-rule="evenodd" d="M17.7749 27.7202C17.7749 27.375 18.0547 27.0952 18.3999 27.0952H30.9999C31.3451 27.0952 31.6249 27.375 31.6249 27.7202C31.6249 28.0654 31.3451 28.3452 30.9999 28.3452H18.3999C18.0547 28.3452 17.7749 28.0654 17.7749 27.7202Z" fill="white"/>
<path fill-rule="evenodd" clip-rule="evenodd" d="M17.7749 14.2798C17.7749 13.9346 18.0547 13.6548 18.3999 13.6548H30.9999C31.3451 13.6548 31.6249 13.9346 31.6249 14.2798C31.6249 14.625 31.3451 14.9048 30.9999 14.9048H18.3999C18.0547 14.9048 17.7749 14.625 17.7749 14.2798Z" fill="white"/>
<path fill-rule="evenodd" clip-rule="evenodd" d="M14.2219 12.1582C14.466 12.4022 14.466 12.798 14.2219 13.042L11.7019 15.562C11.5847 15.6792 11.4258 15.7451 11.26 15.7451C11.0942 15.7451 10.9353 15.6792 10.8181 15.562L9.55806 14.302C9.31398 14.058 9.31398 13.6622 9.55806 13.4182C9.80214 13.1741 10.1979 13.1741 10.4419 13.4182L11.26 14.2362L13.3381 12.1582C13.5821 11.9141 13.9779 11.9141 14.2219 12.1582Z" fill="white"/>
</svg>
