<svg width="16" height="16" viewBox="0 0 16 16" fill="none" xmlns="http://www.w3.org/2000/svg">
<g opacity="0.8">
<path d="M7.99999 0.5C4.13751 0.5 1 3.63748 1 7.49999V9.99998H1.75001V7.58749C1.75001 4.0875 4.55002 1.25001 7.99999 1.25001C11.45 1.25001 14.25 4.0875 14.25 7.58749V9.99998H15V7.49999C15 3.63748 11.8625 0.5 7.99999 0.5Z" fill="#324D5B"/>
<path d="M2.55001 9.25C1.1375 9.25 0 10.375 0 11.75C0 13.125 1.1375 14.25 2.55001 14.25C3.40002 14.25 3.24999 11.75 3.24999 11.75C3.24999 11.75 3.39999 9.25 2.55001 9.25ZM13.3625 9.25C12.5 9.25 12.6375 11.75 12.6375 11.75C12.6375 11.75 12.4625 14.25 13.3625 14.25C14.825 14.25 16 13.125 16 11.75C16 10.375 14.8125 9.25 13.3625 9.25Z" fill="#26A6D1"/>
<path d="M13.375 14.25C13.775 14.25 14.1625 14.1625 14.5 14V9.5C14.1625 9.35001 13.775 9.25 13.375 9.25V14.25ZM1.50003 14.025C1.82503 14.1625 2.17504 14.25 2.55003 14.25C2.57504 14.25 2.60001 14.25 2.62502 14.2375V9.2625L2.55003 9.25C2.17504 9.25 1.82503 9.325 1.50003 9.47499V14.025Z" fill="#208DB2"/>
<path d="M4.00001 8C3.17501 8 2.5 8.67501 2.5 9.50001V14C2.5 14.825 3.17501 15.5 4.00001 15.5C4.82502 15.5 5.50003 14.825 5.50003 14V9.49998C5.5 8.67498 4.82502 8 4.00001 8ZM12 8C11.175 8 10.5 8.67501 10.5 9.50001V14C10.5 14.825 11.175 15.5 12 15.5C12.825 15.5 13.5 14.825 13.5 14V9.49998C13.5 8.67498 12.825 8 12 8Z" fill="#E4E7E7"/>
<path d="M5.49998 14V9.50001C5.49998 8.67501 4.82497 8 3.99997 8V15.5C4.825 15.5 5.49998 14.825 5.49998 14ZM10.5 9.50001V14C10.5 14.825 11.175 15.5 12 15.5V8.00003C11.175 8.00003 10.5 8.67501 10.5 9.50001Z" fill="#EBEDED"/>
</g>
</svg>
