<svg width="18" height="18" viewBox="0 0 18 18" fill="none" xmlns="http://www.w3.org/2000/svg">
<g opacity="0.8" clip-path="url(#clip0)">
<path d="M6.75 13.9231H11.538V16.1731H6.75V13.9231Z" fill="#CCD0D2"/>
<path d="M6.19202 16.1731H12.096C12.402 16.1731 12.654 16.4251 12.654 16.7311C12.654 17.0371 12.402 17.2891 12.096 17.2891H6.19202C5.88604 17.2891 5.63403 17.0371 5.63403 16.7311C5.63403 16.4251 5.88604 16.1731 6.19202 16.1731Z" fill="#E4E7E7"/>
<path d="M0.846024 0.710938H17.154C17.622 0.710938 18 1.08895 18 1.55695V12.9149C18 13.3829 6.10393e-05 13.3829 6.10393e-05 12.9149V1.55695C1.53363e-05 1.08895 0.378025 0.710938 0.846024 0.710938Z" fill="#36434F"/>
<path d="M0.846008 1.55713H17.154V11.1151H0.846008V1.55713Z" fill="#465765"/>
<path d="M7.03802 4.09497H10.98C11.142 4.09497 11.268 4.22097 11.268 4.38299V8.59497C11.268 8.75699 11.142 8.883 10.98 8.883H7.03802C6.876 8.883 6.75 8.75699 6.75 8.59497V4.36498C6.75 4.22097 6.876 4.09497 7.03802 4.09497Z" fill="#E4E7E7"/>
<path d="M7.88397 7.46094H10.134V8.01893H7.88397V7.46094Z" fill="white"/>
<path d="M8.99999 4.92285C9.46799 4.92285 9.84599 5.30086 9.84599 5.76886C9.84599 6.23685 9.46799 6.61486 8.99999 6.61486C8.532 6.61486 8.15399 6.23685 8.15399 5.76886C8.15399 5.30086 8.532 4.92285 8.99999 4.92285Z" fill="#C2C5C5"/>
<path d="M6.75 13.9231H11.538V14.7691H6.75V13.9231Z" fill="#B7BBBD"/>
<path d="M0 13.095C0 13.563 0.37801 13.941 0.846009 13.941H17.154C17.622 13.941 18 13.563 18 13.095V11.979H0V13.095Z" fill="#E4E7E7"/>
</g>
<defs>
<clipPath id="clip0">
<rect width="18" height="18" fill="white"/>
</clipPath>
</defs>
</svg>
