<svg width="20" height="20" viewBox="0 0 20 20" fill="none" xmlns="http://www.w3.org/2000/svg">
<path d="M1.93541 14.1961C0.884076 12.1755 0.629545 9.8339 1.22218 7.63463C1.81482 5.43536 3.21144 3.53869 5.13567 2.31994C7.05989 1.1012 9.37152 0.649181 11.6131 1.05335C13.8547 1.45752 15.8628 2.68842 17.2402 4.50247C18.6176 6.31651 19.2639 8.58153 19.0511 10.8493C18.8383 13.117 17.782 15.2223 16.0912 16.7484C14.4003 18.2746 12.1982 19.1104 9.92059 19.0905C7.64296 19.0706 5.45578 18.1965 3.79186 16.6411" stroke="#F29E50" stroke-width="1.5" stroke-miterlimit="10" stroke-linecap="round"/>
<path d="M14.8592 14.5832C13.7108 15.8012 12.147 16.5437 10.4773 16.6637C8.80765 16.7836 7.15377 16.2724 5.84309 15.231C4.53241 14.1897 3.66046 12.6942 3.39985 11.0406C3.13925 9.38705 3.50898 7.69589 4.43585 6.30192C5.36273 4.90795 6.77919 3.91278 8.40484 3.5134C10.0305 3.11402 11.7469 3.33955 13.2141 4.14534C14.6814 4.95113 15.7927 6.27845 16.328 7.86455C16.8633 9.45065 16.7836 11.1799 16.1047 12.71" stroke="#7B3CA5" stroke-width="1.5" stroke-miterlimit="10" stroke-linecap="round"/>
</svg>
